<?xml version="1.0" encoding="utf-8"?>
<!-- Generator: Adobe Illustrator 19.0.0, SVG Export Plug-In . SVG Version: 6.00 Build 0)  -->
<svg version="1.1" id="Layer_1" xmlns="http://www.w3.org/2000/svg" xmlns:xlink="http://www.w3.org/1999/xlink" x="0px" y="0px"
	 viewBox="0 0 305.9 1000.3" style="enable-background:new 0 0 305.9 1000.3;" xml:space="preserve">
<style type="text/css">
	.st0{fill:#212121;}
</style>
<path class="st0" d="M48.5,470c-3.7,0.6-6,1.3-8.3,1.3c-10.2,0.3-12.6-1.5-14.8-11.4c-3.5-15.7-7.1-31.4-10.1-47.2
	c-0.8-4.1-0.3-8.6,0.5-12.8c2.3-13.1-0.8-25.4-7.3-36.3c-8.5-14.2-9.6-29.1-7.6-44.8c4.3-32.5,9.6-64.9,17.9-96.6
	c1.2-4.6,2.1-9.5,1.9-14.2c-0.7-14.3,5.1-25.5,15.8-33.9c14.3-11.2,28.8-22.1,44.1-31.9c9.6-6.1,20.6-10,30.9-15
	c1.6-0.8,3.4-2,4.3-3.5c3.8-5.8,7.4-11.8,11-17.8c0.6-1.1,0.8-2.5,0.9-3.8c0.2-3.8,0-7.7,0.3-11.5c0.3-3.2-0.8-5.2-3.2-7.6
	c-2.8-2.9-4.9-7.2-5.8-11.2c-1-4.4-0.4-9.2-0.4-13.9c0.1-4,1.6-7.1,5.2-7.7c1.2-9.7,2.2-19,3.6-28.2c0.4-2.3,1.8-4.9,3.5-6.3
	C142.6,6.5,155.7,1,170.7,0.1c9.1-0.6,16.6,3,23.5,8.1c5.6,4.2,11.3,8.3,16.4,13.1c2.1,2,3.9,5.4,4,8.2c0.5,9.8,0.2,19.6,0.2,29.4
	c4.9,1.6,7.1,4.8,5.4,10.9c-1.7,6.5-4.9,12.7-7.4,19c-0.2,0.4-0.5,1-0.9,1.1c-6.3,2-6,8-7.6,12.8c-0.5,1.6-0.8,3.5-1.8,4.6
	c-9.1,9.6-3.6,19.6-1.2,29.6c0.2,1,1.8,1.9,2.9,2.5c16.3,10.3,32.6,20.7,49,30.8c18.6,11.4,27.5,29.7,34.9,49
	c6.1,16.1,7.3,33.1,8.8,50c1.9,19.7,3.5,39.5,5.4,59.2c1.4,14.5,0.9,28.9-1.9,43.2c-1.2,6-0.9,11.4,4,16.1c1.3,1.2,1.9,4.4,1.4,6.3
	c-1.4,5.1-3.1,10.2-5.3,15c-3.8,8-4.6,16.1-1.1,24.1c2.4,5.5,1.5,10.2-0.7,15.3c-1.3,3.1-2.2,6.6-2.6,10c-0.9,8.9-1.4,17.9-2.2,26.9
	c-0.1,1.3-0.3,3.2-1.1,3.6c-5,2.7-4.2,7.6-4.8,11.9c-4.4,32.2-4.5,64.8-6.3,97.2c-2.8,51.1-10.2,101.8-24,151.1
	c-3.8,13.5-6,26.6-6.2,40.5c-0.5,27.2-0.3,54.3,2.3,81.3c0.8,8.3-2.1,15.6-5.7,22.9c-2.3,4.7-4.6,9.7-5.1,14.8
	c-0.7,6.5,0.5,13.1,0.9,19.7c0,0.2,0,0.4,0,0.5c5.1,3,3.9,9.9,8.2,13.4c1.9,1.5,4,3.2,6.2,3.9c6.4,1.8,12.9,3,19.4,4.5
	c6.4,1.5,11.8,4.1,13.9,11.1c0.3,0.9,1.6,1.5,2.3,2.3c1.1,1.1,2.1,2.3,3.1,3.4c-1.3,1.2-2.5,3.1-4.1,3.4c-6.6,1.6-13.4,2.7-20.1,4
	c-17.3,3.3-34.7,4.6-52.1,1.5c-2.3-0.4-5.1-2.1-6.2-4.1c-2.5-4.4-5.9-5.1-10.1-4c-12.7,3.2-24.6,0.1-36.3-4.7
	c-3.7-1.5-5.8-3.5-4.5-8c0.8-2.7,0.3-5.7,0.9-8.4c0.5-2.4,1.6-4.6,2.9-7.9c-5.8-15.7-2.4-33.4-1.9-50.7c0.8-26.5,1.9-52.9,0.4-79.4
	c-0.8-15.3-0.8-30.6-1.1-46c-0.2-12.1,1.5-24.7-1.1-36.3c-3.5-15.3-0.6-30.5-2.8-45.6c-1-7.2-1.9-14.3-3-22.8
	c-3,10.8-5.6,20.1-8.2,29.5c-9.6,35.4-12.5,71.8-16.2,108c-3.6,35.4-8.7,70.8-7.5,106.6c0.3,10-2,19.4-6.8,28.3
	c-2.5,4.6-4.3,9.6-6.5,14.4c-0.6,1.3-1.3,3-2.4,3.7c-5.9,3.6-3.6,8.6-1.7,12.8c2.5,5.6,6.1,10.7,5.3,17.4c-0.1,0.9,1.7,1.9,2.1,3
	c0.9,2.9,2,6,1.7,8.8c-0.1,1.3-3.2,3.1-5.2,3.3c-16.7,2.2-33.3,4.4-50,5.9c-10.1,0.9-14.7-6.7-12.7-16.6c2-9.8,6.6-19.2,5-29.6
	c-0.3-1.6-1.6-3-2.3-4.7c-1.9-4.7-4.8-9.4-5-14.3c-0.2-5.1-1.9-9-5-12.4c-4.3-4.7-5.7-9.7-3.8-15.6c7.8-24.5,8-49.8,8-75.1
	c0-12.6,1.9-25.2,2.2-37.9c0.9-34.5,1-69,2-103.4c1.1-34.1,3.2-68.2,4.4-102.3c0.6-17.8,0.1-35.6,0-53.4c-0.1-9.8,0.2-19.7-0.9-29.5
	C53.1,493.5,50.5,481.7,48.5,470z"/>
</svg>
