<?xml version="1.0" encoding="utf-8"?>
<!-- Generator: Adobe Illustrator 19.0.0, SVG Export Plug-In . SVG Version: 6.00 Build 0)  -->
<svg version="1.1" id="Layer_1" xmlns="http://www.w3.org/2000/svg" xmlns:xlink="http://www.w3.org/1999/xlink" x="0px" y="0px"
	 viewBox="0 0 730.2 1085.7" style="enable-background:new 0 0 730.2 1085.7;" xml:space="preserve">
<style type="text/css">
	.st0{fill:#212121;}
</style>
<path class="st0" d="M28.1,685.2c-2.3,0.4-4.1,0.5-5.8,1c-12.2,3.4-15.8-1-17.8-12.6c-0.5-3.1-0.1-6.3-0.3-9.5
	c-0.5-5.6-0.6-11.3-2-16.7c-3.5-13.3-2-26.3,0.5-39.5c1.4-7.5,1.8-15.2,3.8-22.5c1.3-4.8,3.9-9.5,7-13.4c5.9-7.4,12.4-14.4,19-21.1
	c3.1-3.2,7-5.5,10.8-8c5.8-3.9,11.5-7.8,17.6-11.2c3.4-1.9,7.3-3.3,11.1-4c6.3-1.1,12.5-10.8,9.8-16.5c-0.7-1.5-2.5-2.8-4-3.4
	c-14.1-5.7-25.2-14.6-31.7-28.7c-0.6-1.2-1.1-2.7-2.1-3.4c-5.9-4.2-6.1-10.1-5.9-16.5c0.3-9-0.3-18,0.4-27c0.2-3.4,2-7.4,4.4-10
	c5.3-5.7,11.3-10.8,17.1-16c1.4-1.3,3.3-2.1,5.1-2.9c6-2.8,12-5.5,18-8.1c1.8-0.8,3.8-1.4,5.7-1.5c7.5-0.2,15.1-0.9,22.5,0.2
	c4.2,0.6,8.5,3.7,11.9,6.5c5.5,4.6,11,9.4,15.2,15c4.3,5.8,7,12.7,10.3,19.2c3.6,7.3,7,14.7,10.4,22.1c5.8,12.4,3.3,28.3-6.7,37.7
	c-4.4,4.1-5.6,7.8-2.2,12.9c1.2,1.8,1.7,4,2.4,6c1.9,5.5,5.6,7.6,11.5,8.6c12.7,2.2,25.3,5.4,37.8,8.5c2.5,0.6,4.8,2.3,6.8,4.1
	c10.3,9,21.4,17.3,29.3,28.8c5.3,7.6,11.5,14.7,16.6,22.4c2.7,4.1,4.1,9,5.5,13.8c1,3.4,2.3,5,6.1,5c7.2-0.1,13.7,2.2,19.1,7.2
	c0.8,0.8,2,1.8,2.9,1.7c8.6-0.5,17.1-1,25.6-2.2c1.6-0.2,3.3-3,4.2-4.9c2.1-4.1,3.8-8.4,5.7-12.6c0.8-1.8,1.7-3.6,2.2-5.5
	c1.5-5.2,3-10.4,4.2-15.7c1.2-5.3,2.3-10.7,3-16c0.6-4.3,0.5-8.6,1-12.9c0.4-3.2-0.5-5.3-3.5-6.9c-13-7.1-13.8-16-2.5-25.3
	c9.5-7.8,10.1-18.9,12.2-29.4c1.4-7.1,2.1-14.4,3-21.6c1.7-13.8,3.4-27.6,4.8-41.5c0.6-6,0.3-11.8,3-17.7c2.1-4.6,2.1-10.3,2.8-15.5
	c0.9-6.9,0.6-14.1,2.5-20.7c3.4-11.9,0.4-24.4,4.9-36.3c3.1-8.2,3.3-17.4,4.8-26.2c0.7-4.2,1.3-8.4,2.4-12.5
	c2.1-7.7,4.9-15.3,6.7-23.1c1.7-7.4,2.5-14.9,3.5-22.4c0.7-5.3,3-9.7,6.8-13.4c4.1-4,7.8-8.4,11.8-12.5c4.9-5.1,9.7-10.4,15.2-14.8
	c5.6-4.6,11.8-8.5,18-12.2c3.4-2,7.3-3.2,11-4.3c7-2.1,8.5-6.3,4.2-12.2c-0.8-1-1.2-3.1-0.7-4.1c2.3-4.8,1.4-9.9-1.8-13
	c-4.4-4.2-3-8.3-2.2-12.7c1-5.5,2.2-11,2.9-16.6c0.2-1.5-0.7-4.2-1.9-4.8c-5.7-2.7-5.4-8-5.9-12.8c-0.5-5.6-0.2-11.3-0.2-17
	c-0.1-6-0.1-6-5.3-8.3c0.2-0.4,0.3-0.9,0.6-1.3c6-7.7,6.7-12.6,0.2-19.5c-5.6-5.9-5.2-10.7-1.3-17.1c2.7-4.4,3.5-10,6.1-14.6
	c2.7-4.8,5.7-10.4,10.2-12.9c10-5.7,21-9.7,31.7-14.2c1.3-0.6,3-0.8,4.4-0.7c6.9,0.7,12.7-2.1,19-4.2c6.9-2.2,15.1-1.7,22.5-0.7
	c11.8,1.7,20.6,9.5,29.1,17.3c13.3,12.2,24.5,25.9,31.4,42.7c3.7,9.2,6.6,18.8,9,28.4c3.1,12.5,5.7,25.2,7.8,38
	c0.8,4.6,0.4,9.7-0.5,14.3c-1.9,9.8,2.3,21.5,10.9,26.8c7.7,4.7,15,10.7,25.1,9.3c1.3-0.2,2.8,0.9,4.1,1.6c3.3,1.7,6.6,3.6,10.3,5.6
	c0.6,6.2,7.2,6,11.5,8.4c7.2,4,15.7,5,21.8,11.7c4.1,4.5,10.6,6.8,15.2,11c4.1,3.8,9.3,6.8,10.4,13.8c1.1,7.2,4.9,14,6.8,21.2
	c1.1,4.1,0.5,8.6,1,12.8c1,7.5,2.3,15,3.5,22.4c0.7,4.6,1.9,9.1,2.4,13.7c1.5,13.6,2.1,27.3,4.2,40.8c3.5,22.9,1.6,45.8,1.2,68.7
	c-0.3,15.5-3.4,30.9-5.2,46.4c-0.8,6.9-1.3,13.8-2.2,20.7c-0.3,2.3-0.8,4.7-1.9,6.6c-2.5,4.2-2,8.5-1.6,13c0.5,6.2,0.4,12.5,0,18.7
	c-0.5,7-1.7,13.9,1.6,20.6c1.1,2.2,1.7,4.8,1.7,7.2c0,4.2-2.1,6.9-6.8,6.9c-4.1,0-8.3,0-13.8,0c-1.2,9.7-2.4,19.3-3.4,29
	c-0.6,6.1-0.8,12.2-1.2,18.4c0,0.6-0.3,1.7,0,1.9c6.2,4.1,2.8,10.3,3.5,15.6c0.4,3.4,0.1,6.9,0.1,11c-2.4,0-4.1,0.1-5.9,0
	c-3.4-0.2-6.3,0.6-7.9,4c-0.4,0.7-1,1.6-1.6,1.8c-10.6,3.7-19.5,12.1-32,10.4c-6.1-0.9-7.9,1-8.5,7c-0.9,8.6-1.7,17.2-2.1,25.8
	c-0.8,16.1-5.3,31.4-10.3,46.6c-2.1,6.4-5.2,12.7-6.5,19.2c-0.9,4.3,0.6,9,1.2,13.5c0.5,3.9,1.1,7.9,1.6,11.8
	c0.7,5.7,1.3,11.5,1.9,17.3c0.2,2,0.3,4,0.1,6c-0.6,10.4-1.3,20.8-2,31.2c-1.2,17-2.8,34.1-3.6,51.1c-0.4,8.6,0.6,17.2,1,25.8
	c0.1,3,0.6,6,0.6,9c0.5,17.7-0.3,35.2-3.6,52.6c-0.4,2,0.3,4.3,0.7,6.4c1.7,8,1.8,15.6-1.9,23.3c-1.9,4.1-2.2,8.9-3.4,13.3
	c-0.7,2.5-0.8,5.7-2.5,7.3c-8.1,7.8-6.5,16.9-1.3,24.1c8.8,12.4,8.6,25.8,8.1,39.7c-0.2,5.8-5.9,11.9-13.1,12.4
	c-11,0.8-22.2,2-33.1-2.2c-6.4-2.5-9.7-6.8-11.6-13.2c-3.1-10.7-1.7-21.5-1.9-32.3c-0.1-4.3,0.4-8.7,0-13c-0.2-2.9-1.8-5.6-2.3-8.5
	c-1.1-7.9-6.3-12.2-12.4-16.5c-2.8-2-4.6-6.9-4.7-10.5c-0.6-14.3-0.6-28.7-0.4-43c0.2-13.8,2.7-27.7,1.3-41.3
	c-2.8-27.3-1.1-54.6-1.3-81.8c-0.1-13.6,1.6-27.2,1.5-40.8c0-8.1-1.8-16.1-2.8-24.2c-0.3-2.5-0.8-5-0.8-7.4
	c0.6-21.4,1.4-42.9,1.9-64.3c0.3-11.7-0.2-23.3,0.1-35c0.4-12.3-3.1-24-5.4-35.9c-0.4-2.3-0.8-4.5-1.3-7.1c-4-0.6-6.7,1.1-7.4,4.8
	c-1.7,8.1-3.1,16.3-4.4,24.4c-4.4,29.8-1,59.9-2.1,89.8c-0.2,5.1-1.2,10.2-1.7,15.3c-0.8,8.1-1.4,16.2-2.1,24.2
	c-0.2,2.8,0.2,6-1,8.3c-3.3,6.4-2.9,13.2-3.3,20c-1,18.4-2.6,36.8-3.6,55.2c-1,17.8-1.2,35.6-2.3,53.3c-0.8,13.4-2.8,26.7-3.7,40.1
	c-1,16.1-1.7,32.2-2,48.3c-0.1,6.2-1.3,10.8-6.9,14.3c-2,1.2-3.2,5-3.3,7.7c-0.3,8.8,0,17.7,0.1,26.5c0,6.4-1.9,8.9-8.3,9.2
	c-4.2,0.2-6.6,1.7-8.1,5.8c-1.8,4.8-3.9,9.7-7,13.6c-3.3,4.1-7.6,8.4-12.3,10.4c-11.6,4.8-23.7,5.7-36.1,2.2
	c-9.3-2.7-11.7-6.7-9.3-16.1c1.7-6.3,3.9-12,9.1-16.2c0.9-0.7,1.4-1.9,1.9-2.9c3.9-7.9,7.9-15.7,11.4-23.7c1.5-3.5,2-7.6,2.9-11.4
	c0.2-0.8-0.2-1.9,0.3-2.4c7-9.5,1.6-19.7,0.8-29.2c-1.1-11.3-1.8-22.4,1.6-33c4.2-13.3,3.6-25.6-1.4-38.4c-2-5.1-2.6-11-2.9-16.5
	c-0.5-8.8,0-17.7-0.2-26.5c-0.6-17.8-1.5-35.5-2-53.3c-0.1-3,1.3-6,2.2-9c0.4-1.3,1.3-2.4,1.5-3.7c0.9-9.9,1.9-19.7,2.3-29.6
	c0.4-8.8-0.2-17.7,0.1-26.5c0.3-10.8-2.1-21-4.7-31.3c-3.9-15.6-8.8-31-9.5-47.3c-0.5-10.9-2.6-21.7-4.2-32.5
	c-0.8-5.3-2.5-5.8-7.6-4.1c-3.3,1.1-7.1,1.6-10.6,1.4c-1.6-0.1-3.1-2.8-4.6-4.3c-0.1-0.1,0-0.4,0-0.5c-3.9-5.8-0.9-10.3,1.7-15.6
	c1.8-3.6,1.4-8.9,0.4-13c-1.5-6.3-0.7-11.7,2.3-17.3c1.5-3,2.4-6.6,2.5-9.9c0.4-8.5,0.5-17,0.3-25.5c0-1.8-1.1-4.7-2.4-5.2
	c-1.5-0.5-4.2,0.7-5.5,2c-3.4,3.5-6.9,5.6-12.1,6c-7.3,0.7-9.2,4.9-7.1,12c2.4,8.1,7.5,15.3,6.7,24.3c-0.7,8.1-1.2,16.1-2.3,24.1
	c-0.2,1.2-2.5,2.8-4,3.1c-2.9,0.5-5.9,0.1-7.8,0.1c-2.5,4-4.3,7.4-6.5,10.6c-3.3,4.8-4,9.3-2.2,19.5c-6.3-0.3-12.3-0.1-18.3-1
	c-3.7-0.5-7.1-3-10.8-3.6c-4.3-0.7-8.9-1.2-13-0.4c-4.6,1-8.9,3.7-13.4,5.4c-3.8,1.5-7.9,2.3-11.7,3.9c-4,1.7-7.7,4.1-11.6,6
	c-2.6,1.3-5.3,2.9-8.1,3.3c-19,2.7-35.7-3.8-51.3-13.7c-3.7-2.4-6.8-5.8-10-9c-4.8-4.8-7.1-4.3-9.3,1.9c-3.2,8.9-1.2,17.1,1.6,25.8
	c2,6.2,3.4,13.3,2.1,19.4c-1,4.5-6.2,8.6-10.4,11.8c-3.8,2.9-5.4,5.9-1.8,8.8c4.5,3.6,4.5,7.9,4.7,12.9c0.4,13.8-0.7,28.1,2.6,41.2
	c5.7,22.2,2.2,44.4,3.3,66.5c0.4,6.9,0.6,13.5,3,20c2.1,5.7,0.7,8.7-4.8,11.1c-3.5,1.5-7.3,2.2-10.8,3.7c-1.4,0.6-3.3,2.3-3.3,3.6
	c-0.3,14.5-0.4,28.9,4.1,43c4,12.5,4.8,25.1,2.5,38.3c-1.5,8.6,0.9,17.7,0.8,26.6c0,5.5-0.6,11.3-2.2,16.5c-2,6.5-2.1,7.4,4.8,8.9
	c0,3.5,0,7.1,0,10.7c0.1,10.7,2.4,20.8,7.5,30.5c3.9,7.4,6.5,15.7,8.2,23.9c1.4,6.8-2.9,12.7-9.4,15.2c-8.7,3.3-18,3.8-27.1,2.4
	c-8.6-1.3-14.3-8.6-15.1-17.3c-0.2-2-0.9-4.5-2.2-5.9c-3.3-3.3-3.5-7.1-3.9-11.4c-0.8-10.9-2.5-21.6-3.4-32.5
	c-0.5-5.9-2.5-12.3,3.9-16.9c1.1-0.8,0.8-5.4-0.5-7c-3.8-4.6-2.9-9-2.5-14.4c0.7-9-0.9-18.1-1.5-27.2c-0.5-7.3-1.7-14.6-1.5-21.8
	c0.4-10.8-1.2-20.8-7.7-29.8c-6.7-9.3-8-19.9-6-31c0.5-3.1,0.2-6.4,0.9-9.4c1.2-5.4-2.2-7.7-6.1-9.5c-3.1-1.4-5.1,0.7-5.2,3.5
	c-0.1,3.6,0.2,7.4,1.4,10.7c3.4,9.6,3.5,19.2-0.9,28.2c-6,12.2-8.1,24.7-7,38.2c0.7,8.4,0,17,0,25.5c0,0.7-0.3,1.4,0,2
	c4,8.4,0.4,16.1-2.1,24c-0.7,2.3-0.8,4.9-0.9,7.4c-0.3,4.6,1.8,7.4,6.7,7.2c3.6-0.2,4.5,1.4,4.5,4.8c-0.1,11.3-0.2,22.6,0.2,33.9
	c0.3,9.3-0.3,18.6,3,27.9c4.3,11.9-3.7,22.5-16.5,22.8c-7.4,0.2-15-0.7-22.2-2.4c-11.3-2.7-15.9-12.5-14-24.3
	c1.9-11.7,2-23.7,3.5-35.6c1-8.3-1.3-16.7,2.5-25c1.4-3.1-0.2-7.9-1.1-11.7c-1.8-6.9-4.1-13.6-6.2-20.4c-0.4-1.4-0.9-2.9-0.9-4.4
	c-0.1-11.4-0.5-22.9-0.2-34.3c0.3-8.9,1.7-17.8,2.1-26.8c0.3-8.1-0.1-16.3-0.1-24.5c0-4-1.3-6.7-6-6.6c-1.6,0-3.3-0.7-4.8-1.2
	c-10-3.8-9.7-7.2-8.9-17.2c0.8-10.4,2.2-20.9,1.1-31.1c-1.4-13.1-5-25.9-5.7-39.3c-0.5-9-1.2-18.1-1.5-27.2
	c-0.1-2.8,0.9-5.8,2.2-8.4c1.7-3.4,2.3-6.4,0.3-9.9c-1-1.8-1.4-4-1.6-6.1c-0.8-8.4-3.1-10.8-10.9-13.4c-4.9-1.7-9.5-4.6-13.8-7.5
	c-1.3-0.8-1.6-3.5-1.9-5.4C28.1,690.4,28.2,688.1,28.1,685.2z"/>
</svg>
