<?xml version="1.0" encoding="utf-8"?>
<!-- Generator: Adobe Illustrator 19.0.0, SVG Export Plug-In . SVG Version: 6.00 Build 0)  -->
<svg version="1.1" id="Layer_1" xmlns="http://www.w3.org/2000/svg" xmlns:xlink="http://www.w3.org/1999/xlink" x="0px" y="0px"
	 viewBox="0 0 258.1 934.7" style="enable-background:new 0 0 258.1 934.7;" xml:space="preserve">
<style type="text/css">
	.st0{fill:#212121;}
</style>
<path class="st0" d="M220.1,448.3c-0.8-2.6-1.1-3.7-1.5-4.8c-0.7,0.2-1.2,0.3-1.3,0.4c-2.5,9.9-8.9,18.2-7.9,29.7
	c0.9,9.5-2.9,19.5-4.8,29.3c-0.6,3.1-2.1,6-2.5,9.1c-1.2,7.5-6,12.8-10.7,18.1c-1.1,1.3-3.6,1.4-5.7,2.2c-3.6,2.4-7.8,4.8-11.5,7.9
	c-1.4,1.1-1.8,3.8-2,5.8c-2.4,21.7,1.3,42.8,6.4,63.8c2.2,8.9,4.3,17.8,6.6,27.5c-5.3,1.2-10.4,2.3-15.9,3.5
	c2.5,11.2-7.2,6.9-11.9,9.2c2.1,9.9,4.2,19.8,6.2,29.7c2.2,10.8,1.8,21.4-1.3,32.1c-1.3,4.6-2.1,9.5-2,14.2
	c0.4,21.6,0.7,43.3,2.1,64.9c0.6,9.2,3.5,18.2,5.7,27.3c0.4,1.5,1.8,3,3.1,4.1c5.8,5.6,11.1,11.4,13.5,19.4c1.2,4,1.3,7.9-1.5,10.8
	c-9.8,10.3-8.8,22.7-7.6,35.3c0.3,3,0.4,6,0.7,9c0.5,4.5-1.7,5.1-5.2,4.4c-0.7-9-1.1-17.8-2.2-26.5c-0.4-3-2.4-5.9-3.6-8.8
	c-3.1,1.4-6.6,2.2-9.1,4.3c-6.2,5.1-11.6,11-14.5,18.7c-2.8,7.6-8.4,12.7-15.8,15.8c-2.9,1.2-3.6,2.8-3,6.1
	c2.4,14.1-6,23.9-20.5,23.8c-5.8,0-11.6-1-17.2-2.2c-7.3-1.6-10.7-6.7-11-14.1c-0.1-3,0-6,0-9.2c-3.6-0.9-7.2-1.5-10.6-2.8
	c-1.4-0.5-2.3-2.4-3.4-3.7c1.4-0.7,2.7-1.8,4.1-2.1c3.5-0.9,7.1-1.6,11.3-2.5c-0.9-5.9-1.6-11.5-2.7-16.9c-1.9-9-4.3-17.8-1.9-27.1
	c0-0.2,0.1-0.4,0-0.5c-3.9-10.1,2.5-18.7,3.6-28c1.6-12.3,1.2-24.9,0.3-37.3c-1.2-17.3-3.7-34.4-5.6-51.6c-0.1-0.8,0-1.7-0.2-2.5
	c-4.9-16.8-3.7-33.7-0.8-50.5c2.4-13.9-0.5-27.1-3.2-40.5c-1.1-5.3-3.9-6.3-8.3-8.4c-6.9-3.2-14.1-3.7-21-5.9
	c-3.7-1.2-6.8-4.4-11-7.3c2.1-7.5,4.9-16.1,6.8-25c2.6-11.5,5.8-23.1,6.6-34.8c1.6-23.2,2.2-46.5-0.7-69.8
	c-1.7-13.7-2.5-27.5-3.8-41.7c-1.8-0.4-3.8-0.8-6.6-1.4c0,3.2-1.1,6.6,0.2,8.5c5.7,8.9,4.9,18.7,5,28.5c0.1,9,0.7,17.9,0.9,26.9
	c0,1.3-0.6,3.8-1.1,3.8c-1.7,0.1-3.9-0.1-5-1.1c-4-3.8-5.4-8.6-5-14.1c0.2-2.9,0-5.9,0-8.9c-6.9,0.3-9.5,4.4-7.5,12
	c1.5,5.8,2.4,11.8,9.3,14.8c3.6,1.6,6.5,5.2,9.3,8.3c0.9,1,0.5,3.3,0.4,5c-0.2,2.2-0.7,4.5-1.2,7.9c-9.3-6.9-18.9-12-25.5-19.8
	c-5.3-6.3-9-14.6-6.1-24.8c3.6-12.5,4.6-25.8,7.3-38.7c4.3-20.5,5.4-41.2,6-62c0.4-13.3,2.3-26.5,3.2-39.8c0.3-4.4-0.6-8.9-0.6-13.3
	c0.1-7.4-0.2-14.9,1.2-22.2c3.5-18.9,7.8-37.8,11.9-56.6c6-28.3,12-56.6,18.1-84.8c1.2-5.7,3.8-10.7,9.2-13.6
	c7-3.8,13.8-7.9,20.9-11.2c7.8-3.6,14.7-17,13.2-25.4c-4.4-23.7-8.7-47.4-12.6-71.2c-1-6-1.3-12.4-0.3-18.4
	c0.9-5.3,2.7-11.5,6.3-15.2c11.6-12.3,26.6-19.8,42.9-22.9c14-2.7,27,2.4,37.1,12.9c8.3,8.7,14,19,17.4,30.5
	c6.1,21.3,11.8,42.6,18.4,63.7c3.7,11.9,8.7,23.3,13.3,34.9c0.5,1.3,1.5,2.7,2.7,3.4c7.1,4,13.9,8.9,21.5,11.5
	c10.7,3.8,12.8,12.4,14.2,21.4c0.8,5-0.4,10.3-0.6,15.4c-0.1,1.6-0.2,3.4,0.3,4.9c6.7,23.7,5.9,47.7,3.7,71.9
	c-1.1,12.1-2.2,24.2-3.2,36.3c-0.2,2,0,4.7,1.1,6.2c6.4,8.7,5.4,18,2,27.1c-4.2,11.3-6.1,23-8.4,34.7c-1.6,7.7-6,15.2-10.6,21.8
	c-4.3,6.3-6.7,12.8-8.2,20c-1.6,7.8-3.5,15.6-5.4,23.3C222.4,443,221.4,444.9,220.1,448.3z M111.9,869.7c2.4-6.1,5.1-12.2,7.2-18.5
	c1.8-5.3,3.3-10.8,4.2-16.3c2.8-18.3,0.9-36.5-1.6-54.7c-1.2-8.6-2.7-17.2-4.1-25.8c-0.5,0-1,0-1.4,0.1c-1.5,9-3,18-4.5,27
	c-2.6,15.7-5.7,31.3-7.6,47.1c-1,8.1,0.1,16.4,0.3,24.7c0,0.6,0.3,1.3,0.5,1.9C107.1,859.8,109.4,864.5,111.9,869.7z M183.8,332.2
	c9.2,16.3,8.5,34.8,13.6,51.9c0.5-2.4,0.7-4.9,0.9-7.3c0.7-11.1,0-22.4,6.1-32.5c0.6-1,0.1-2.8-0.2-4.2c-1.4-7.1-4.5-14.1,0-21.2
	c0.4-0.6,0.3-1.6,0.2-2.4c-1.2-6.8-2.4-13.5-3.7-20.3c-0.6,0.1-1.1,0.1-1.7,0.2c0.3,2.2,0.1,4.7,0.9,6.7c3.4,8.5,0.8,16.8-2.8,24
	C195.7,330,188.9,330.3,183.8,332.2z"/>
</svg>
